<?xml version="1.0" encoding="UTF-8" standalone="no"?>
<!DOCTYPE svg PUBLIC "-//W3C//DTD SVG 1.1//EN"
 "http://www.w3.org/Graphics/SVG/1.1/DTD/svg11.dtd">
<!-- Generated by graphviz version 12.2.1 (20241206.2353)
 -->
<!-- Title: main.cpp Pages: 1 -->
<svg width="118pt" height="138pt"
 viewBox="0.00 0.00 118.38 137.75" xmlns="http://www.w3.org/2000/svg" xmlns:xlink="http://www.w3.org/1999/xlink">
<g id="graph0" class="graph" transform="scale(1 1) rotate(0) translate(4 133.75)">
<title>main.cpp</title>
<!-- Node1 -->
<g id="Node000001" class="node">
<title>Node1</title>
<g id="a_Node000001"><a xlink:title=" ">
<polygon fill="#999999" stroke="#666666" points="86.62,-129.75 30.88,-129.75 30.88,-110.5 86.62,-110.5 86.62,-129.75"/>
<text text-anchor="middle" x="58.75" y="-116.25" font-family="Helvetica,sans-Serif" font-size="10.00">main.cpp</text>
</a>
</g>
</g>
<!-- Node2 -->
<g id="Node000002" class="node">
<title>Node2</title>
<g id="a_Node000002"><a xlink:href="insertion__sort_8hpp.html" target="_top" xlink:title=" ">
<polygon fill="white" stroke="#666666" points="105.38,-74.5 12.12,-74.5 12.12,-55.25 105.38,-55.25 105.38,-74.5"/>
<text text-anchor="middle" x="58.75" y="-61" font-family="Helvetica,sans-Serif" font-size="10.00">insertion_sort.hpp</text>
</a>
</g>
</g>
<!-- Node1&#45;&gt;Node2 -->
<g id="edge1_Node000001_Node000002" class="edge">
<title>Node1&#45;&gt;Node2</title>
<g id="a_edge1_Node000001_Node000002"><a xlink:title=" ">
<path fill="none" stroke="#63b8ff" d="M58.75,-110.33C58.75,-103.82 58.75,-94.67 58.75,-86.37"/>
<polygon fill="#63b8ff" stroke="#63b8ff" points="62.25,-86.37 58.75,-76.37 55.25,-86.37 62.25,-86.37"/>
</a>
</g>
</g>
<!-- Node3 -->
<g id="Node000003" class="node">
<title>Node3</title>
<g id="a_Node000003"><a xlink:title=" ">
<polygon fill="#e0e0e0" stroke="#999999" points="53.5,-19.25 0,-19.25 0,0 53.5,0 53.5,-19.25"/>
<text text-anchor="middle" x="26.75" y="-5.75" font-family="Helvetica,sans-Serif" font-size="10.00">iostream</text>
</a>
</g>
</g>
<!-- Node2&#45;&gt;Node3 -->
<g id="edge2_Node000002_Node000003" class="edge">
<title>Node2&#45;&gt;Node3</title>
<g id="a_edge2_Node000002_Node000003"><a xlink:title=" ">
<path fill="none" stroke="#63b8ff" d="M53.47,-55.08C49.28,-48.11 43.27,-38.12 38.02,-29.37"/>
<polygon fill="#63b8ff" stroke="#63b8ff" points="41.08,-27.68 32.93,-20.91 35.08,-31.28 41.08,-27.68"/>
</a>
</g>
</g>
<!-- Node4 -->
<g id="Node000004" class="node">
<title>Node4</title>
<g id="a_Node000004"><a xlink:title=" ">
<polygon fill="#e0e0e0" stroke="#999999" points="110.38,-19.25 71.12,-19.25 71.12,0 110.38,0 110.38,-19.25"/>
<text text-anchor="middle" x="90.75" y="-5.75" font-family="Helvetica,sans-Serif" font-size="10.00">utility</text>
</a>
</g>
</g>
<!-- Node2&#45;&gt;Node4 -->
<g id="edge3_Node000002_Node000004" class="edge">
<title>Node2&#45;&gt;Node4</title>
<g id="a_edge3_Node000002_Node000004"><a xlink:title=" ">
<path fill="none" stroke="#63b8ff" d="M64.03,-55.08C68.22,-48.11 74.23,-38.12 79.48,-29.37"/>
<polygon fill="#63b8ff" stroke="#63b8ff" points="82.42,-31.28 84.57,-20.91 76.42,-27.68 82.42,-31.28"/>
</a>
</g>
</g>
</g>
</svg>
